#!OML:ASF H:\Terrain\Patient Classification 1\Walking\liu\liu.ASF
:FULLY-SPECIFIED
:DEGREES
397
root 9.57944 16.9839 19.3676 6.15136 -1.38866 -6.85335
lowerback -7.44047 3.26082 3.12703
upperback 0.37197 3.89511 3.86687
thorax 4.49708 1.95882 2.70416
lowerneck -19.4257 -6.3791 -13.6076
upperneck 21.4511 -8.16974 13.2224
head 11.3301 -3.30619 5.8706
rclavicle -4.69629e-015 -2.14687e-014
rhumerus -25.8596 15.5504 -83.5786
rradius 40.8116
rwrist -19.9703
rhand -30.8505 -21.9987
rfingers 7.12502
rthumb -4.13875 -51.9383
lclavicle -4.69629e-015 -2.14687e-014
lhumerus -52.0711 -10.152 95.892
lradius 26.7237
lwrist 8.93201
lhand -12.3358 -27.0251
lfingers 7.12502
lthumb 13.7333 2.50165
rfemur 14.1998 6.08226 32.775
rtibia 4.45278e-014
rfoot -8.86124 6.3192
rtoes -9.37787
lfemur -42.3963 -3.44924 -9.40591
ltibia 20.2244
lfoot -15.7155 15.3816
ltoes -18.0407
398
root 9.6052 16.9834 19.5122 6.37129 -1.46491 -6.79817
lowerback -7.61272 3.30491 3.18033
upperback 0.258621 3.94761 3.78265
thorax 4.48401 1.98634 2.59917
lowerneck -19.331 -6.35126 -13.668
upperneck 21.4382 -8.14372 13.3034
head 11.3097 -3.29375 5.9174
rclavicle 4.37326e-014 1.98785e-015
rhumerus -25.9607 15.5798 -83.8122
rradius 40.6202
rwrist -19.9351
rhand -30.6078 -22.1584
rfingers 7.12502
rthumb -3.90438 -52.1023
lclavicle 4.37326e-014 1.98785e-015
lhumerus -52.3882 -10.098 95.9509
lradius 26.7082
lwrist 8.72961
lhand -11.6077 -26.0579
lfingers 7.12502
lthumb 14.435 3.42011
rfemur 14.45 6.12597 32.6036
rtibia -1.59028e-014
rfoot -8.82253 6.46124
rtoes -11.2118
lfemur -42.7579 -4.35322 -8.90435
ltibia 19.9324
lfoot -16.22 15.4724
ltoes -14.1157
399
root 9.6172 16.9719 19.6517 6.50625 -1.50381 -7.02002
lowerback -7.73055 3.30734 3.31875
upperback 0.242858 3.92867 3.85051
thorax 4.539 1.97906 2.59839
lowerneck -19.3026 -6.28908 -13.727
upperneck 21.305 -8.04469 13.3737
head 11.2448 -3.24709 5.9669
rclavicle -1.96548e-014 -1.39149e-014
rhumerus -25.9678 15.8081 -83.9665
rradius 40.4167
rwrist -19.8609
rhand -30.1987 -22.1778
rfingers 7.12502
rthumb -3.50939 -52.1287
lclavicle -1.96548e-014 -1.39149e-014
lhumerus -52.6005 -9.79381 95.8649
lradius 26.8671
lwrist 8.29079
lhand -9.71283 -21.2403
lfingers 7.12502
lthumb 16.2602 8.09788
rfemur 14.7861 6.13242 32.7835
rtibia 3.18055e-015
rfoot -8.54331 6.5932
rtoes -10.0151
lfemur -42.9915 -5.09502 -8.08998
ltibia 19.7014
lfoot -16.7595 15.5549
ltoes -10.8383
400
root 9.62014 16.956 19.8035 6.3839 -1.62004 -7.33312
lowerback -7.64349 3.29352 3.37816
upperback 0.21527 3.90417 4.02347
thorax 4.4538 1.9666 2.73542
lowerneck -19.2417 -6.22915 -13.6317
upperneck 21.383 -7.94207 13.1408
head 11.2287 -3.22111 5.88058
rclavicle -8.17502e-015 1.59028e-015
rhumerus -26.2223 16.085 -84.1295
rradius 40.2107
rwrist -19.7374
rhand -30.1047 -22.3438
rfingers 7.12502
rthumb -3.4186 -52.2962
lclavicle -8.17502e-015 1.59028e-015
lhumerus -52.9621 -9.46422 95.9087
lradius 26.9838
lwrist 7.83964
lhand -9.37755 -21.7638
lfingers 7.12502
lthumb 16.583 7.54771
rfemur 15.5453 6.16053 33.1077
rtibia 1.27222e-014
rfoot -8.42128 6.6514
rtoes -10.1425
lfemur -42.8738 -5.44983 -7.43037
ltibia 19.6147
lfoot -16.4929 15.9988
ltoes -12.7573
401
root 9.64172 16.938 19.9606 6.40496 -1.54641 -7.4159
lowerback -7.72148 3.23246 3.45371
upperback 0.128313 3.81596 4.00426
thorax 4.41477 1.92431 2.66434
lowerneck -19.1767 -6.15126 -13.2825
upperneck 21.5166 -7.88763 12.8631
head 11.2268 -3.2008 5.72723
rclavicle 1.67228e-014 2.70347e-014
rhumerus -26.5463 15.9021 -84.4332
rradius 40.0286
rwrist -19.2873
rhand -30.4278 -22.5785
rfingers 7.12502
rthumb -3.73054 -52.5256
lclavicle 1.67228e-014 2.70347e-014
lhumerus -53.3139 -9.41809 96.0262
lradius 26.9366
lwrist 7.76946
lhand -9.06953 -22.3235
lfingers 7.12502
lthumb 16.8795 6.96298
rfemur 16.1325 6.02463 33.1432
rtibia 2.54444e-014
rfoot -8.49551 6.68543
rtoes -12.3758
lfemur -43.0064 -5.24377 -7.63403
ltibia 19.8082
lfoot -15.7389 15.5305
ltoes -13.2589
402
root 9.66992 16.9218 20.1193 6.50016 -1.48132 -7.35258
lowerback -8.04905 3.17686 3.46668
upperback 0.184705 3.71961 3.93526
thorax 4.665 1.87731 2.59875
lowerneck -18.9893 -6.05685 -13.2091
upperneck 21.24 -7.79178 12.9386
head 11.0732 -3.14948 5.75056
rclavicle 2.27857e-014 -6.75868e-015
rhumerus -26.7221 15.5127 -84.6868
rradius 39.901
rwrist -18.6375
rhand -30.9081 -21.7965
rfingers 7.12502
rthumb -4.19443 -51.7349
lclavicle 2.27857e-014 -6.75868e-015
lhumerus -53.4463 -9.49107 96.2547
lradius 26.9866
lwrist 8.18429
lhand -11.4989 -27.1607
lfingers 7.12502
lthumb 14.5399 2.30979
rfemur 16.5506 5.91091 32.9629
rtibia -2.8625e-014
rfoot -8.37243 6.82519
rtoes -11.7868
lfemur -43.1565 -4.96694 -8.07063
ltibia 20.0865
lfoot -15.7308 14.6981
ltoes -11.9995
403
root 9.67755 16.9018 20.2752 6.48359 -1.54717 -7.54638
lowerback -8.08724 3.19949 3.44
upperback 0.224208 3.74201 4.06945
thorax 4.71694 1.88654 2.76098
lowerneck -18.9975 -6.08888 -13.384
upperneck 21.108 -7.78518 12.9996
head 11.0359 -3.15402 5.80021
rclavicle -3.88376e-014 -4.05521e-014
rhumerus -26.9047 15.2836 -84.7632
rradius 39.701
rwrist -18.172
rhand -30.8848 -20.6582
rfingers 7.12502
rthumb -4.17194 -50.5971
lclavicle -3.88376e-014 -4.05521e-014
lhumerus -53.5746 -9.35428 96.4421
lradius 27.2111
lwrist 8.44085
lhand -11.7431 -28.1132
lfingers 7.12502
lthumb 14.3045 1.37402
rfemur 17.0776 5.90558 33.1415
rtibia -9.54166e-015
rfoot -8.00538 6.91561
rtoes -10.6026
lfemur -43.1068 -4.48554 -8.17662
ltibia 20.4609
lfoot -16.1854 14.2451
ltoes -12.8007
404
root 9.68128 16.8798 20.4359 6.53859 -1.60772 -7.68566
lowerback -8.19425 3.26454 3.35722
upperback 0.264259 3.82586 4.12036
thorax 4.80855 1.9256 2.87989
lowerneck -19.3153 -6.12976 -13.396
upperneck 21.2157 -7.82942 13.0732
head 11.1486 -3.15556 5.82563
rclavicle 1.40392e-014 -2.70347e-014
rhumerus -27.0111 15.0684 -84.832
rradius 39.4923
rwrist -17.8837
rhand -30.2602 -21.0399
rfingers 7.12502
rthumb -3.56874 -50.9897
lclavicle 1.40392e-014 -2.70347e-014
lhumerus -53.4635 -9.27159 96.3703
lradius 27.1029
lwrist 8.23398
lhand -10.3618 -26.2649
lfingers 7.12502
lthumb 15.6352 3.1233
rfemur 17.565 5.90255 33.2752
rtibia -3.18055e-015
rfoot -7.76597 6.94901
rtoes -10.2721
lfemur -43.1052 -3.48558 -8.68845
ltibia 21.0575
lfoot -16.0751 13.5279
ltoes -12.4951
405
root 9.69817 16.8601 20.61 6.66324 -1.63634 -7.5513
lowerback -8.54002 3.28564 3.17041
upperback 0.249714 3.85615 4.03092
thorax 4.98065 1.93638 2.91743
lowerneck -19.1038 -6.06888 -13.4389
upperneck 21.0435 -7.77837 13.2228
head 11.0452 -3.12668 5.89424
rclavicle 9.03228e-014 6.36111e-015
rhumerus -27.3061 15.0912 -85.0869
rradius 39.1943
rwrist -17.8873
rhand -29.8944 -21.9455
rfingers 7.12502
rthumb -3.21548 -51.901
lclavicle 9.03228e-014 6.36111e-015
lhumerus -53.4407 -9.20816 96.2564
lradius 26.8195
lwrist 7.81107
lhand -7.48909 -20.8207
lfingers 7.12502
lthumb 18.4004 8.32902
rfemur 18.0936 5.87426 33.0457
rtibia -1.30403e-013
rfoot -7.70483 6.99908
rtoes -9.98202
lfemur -43.0974 -2.40074 -9.68679
ltibia 21.7328
lfoot -15.5483 12.38
ltoes -12.0815
406
root 9.71839 16.822 20.7773 6.6965 -1.57542 -7.67531
lowerback -8.56648 3.27864 3.26546
upperback 0.138871 3.84042 4.04104
thorax 4.88534 1.9307 2.86934
lowerneck -18.8796 -6.10801 -13.5357
upperneck 20.9985 -7.82416 13.2048
head 10.996 -3.1656 5.89577
rclavicle 2.03754e-015 4.77083e-015
rhumerus -27.743 15.1711 -85.4011
rradius 38.811
rwrist -18.125
rhand -30.0348 -21.6017
rfingers 7.12502
rthumb -3.35106 -51.5551
lclavicle 2.03754e-015 4.77083e-015
lhumerus -53.6785 -8.97385 96.1585
lradius 26.8101
lwrist 7.2599
lhand -8.36004 -23.1135
lfingers 7.12502
lthumb 17.5624 6.11321
rfemur 18.7422 5.75655 33.14
rtibia -3.18055e-014
rfoot -7.48848 6.94244
rtoes -12.1014
lfemur -43.0892 -1.47479 -10.2995
ltibia 22.4586
lfoot -14.9701 11.1666
ltoes -13.106
407
root 9.74504 16.7938 20.9414 6.74797 -1.39771 -7.93383
lowerback -8.42856 3.30255 3.67333
upperback 0.0188092 3.84873 3.98115
thorax 4.71335 1.9445 2.56579
lowerneck -19.0991 -6.21799 -13.4935
upperneck 21.2095 -7.98457 13.1909
head 11.1397 -3.22866 5.86288
rclavicle -2.93953e-014 -2.18663e-014
rhumerus -28.1334 14.7322 -85.6676
rradius 38.5068
rwrist -17.914
rhand -30.1392 -20.6353
rfingers 7.12502
rthumb -3.45189 -50.5871
lclavicle -2.93953e-014 -2.18663e-014
lhumerus -53.8659 -8.97771 96.0486
lradius 26.807
lwrist 6.75968
lhand -6.75499 -20.8421
lfingers 7.12502
lthumb 19.1064 8.23946
rfemur 19.2812 5.55166 33.3465
rtibia -3.81667e-014
rfoot -7.09475 6.9122
rtoes -14.7559
lfemur -43.0628 -0.855488 -10.6032
ltibia 23.1904
lfoot -14.3767 10.122
ltoes -13.4835
408
root 9.78837 16.7733 21.114 6.92258 -1.23628 -7.69567
lowerback -8.59356 3.2956 3.73553
upperback -0.0432848 3.8351 3.76551
thorax 4.75992 1.94079 2.31276
lowerneck -19.3417 -6.2868 -13.4096
upperneck 21.2896 -8.06994 13.1284
head 11.2232 -3.25877 5.81097
rclavicle -5.21064e-014 -2.38542e-015
rhumerus -28.4881 14.3341 -85.8554
rradius 38.3991
rwrist -17.4085
rhand -29.9929 -20.7793
rfingers 7.12502
rthumb -3.31063 -50.7334
lclavicle -5.21064e-014 -2.38542e-015
lhumerus -53.8348 -9.06219 96.0102
lradius 26.6689
lwrist 6.41986
lhand -7.52371 -22.2171
lfingers 7.12502
lthumb 18.3671 6.93575
rfemur 19.7017 5.37316 32.8811
rtibia 3.81667e-014
rfoot -6.70502 6.97011
rtoes -15.1412
lfemur -42.9599 -0.466322 -11.4788
ltibia 23.854
lfoot -13.948 9.26148
ltoes -13.2911
409
root 9.76776 16.7463 21.2997 6.95533 -1.62769 -7.91323
lowerback -8.81505 3.38045 3.35908
upperback -0.0711697 3.96681 3.92433
thorax 4.81657 1.99588 2.71843
lowerneck -19.3789 -6.21844 -13.2366
upperneck 21.3514 -7.97265 12.9222
head 11.2191 -3.22222 5.71982
rclavicle 5.83681e-014 5.36719e-014
rhumerus -29.139 14.3078 -86.096
rradius 38.494
rwrist -17.1182
rhand -29.5186 -22.1435
rfingers 7.12502
rthumb -2.85258 -52.1042
lclavicle 5.83681e-014 5.36719e-014
lhumerus -53.9232 -9.05733 96.0867
lradius 26.6485
lwrist 6.46069
lhand -9.33428 -25.28
lfingers 7.12502
lthumb 16.6246 4.02795
rfemur 20.301 5.67112 33.1737
rtibia -3.49861e-014
rfoot -6.2717 6.94485
rtoes -15.7064
lfemur -42.6284 0.537503 -11.5189
ltibia 24.3795
lfoot -12.9164 8.80434
ltoes -12.3043
